HIERARCHY
ROOT Hips
{
	OFFSET -3.958830 18.904000 13.208200
	CHANNELS 6 Xposition Yposition Zposition Zrotation Yrotation Xrotation 
	JOINT LHipJoint
	{
		OFFSET 0.000000 0.000000 0.000000
		CHANNELS 3 Zrotation Yrotation Xrotation
		JOINT LeftUpLeg
		{
			OFFSET 1.800000 -1.400000 0.085000
			CHANNELS 3 Zrotation Yrotation Xrotation
			JOINT LeftLeg
			{
				OFFSET 2.215000 -6.000000 0.000000
				CHANNELS 3 Zrotation Yrotation Xrotation
				JOINT LeftFoot
				{
					OFFSET 2.500000 -6.900000 0.000000
					CHANNELS 3 Zrotation Yrotation Xrotation
					JOINT LeftToeBase
					{
						OFFSET 0.200000 -0.500000 1.950000
						CHANNELS 3 Zrotation Yrotation Xrotation
						End Site
						{
							OFFSET 0.000000 0.000000 0.000000
						}
					}
				}
			}
		}
	}
	JOINT RHipJoint
	{
		OFFSET 0.000000 0.000000 0.000000
		CHANNELS 3 Zrotation Yrotation Xrotation
		JOINT RightUpLeg
		{
			OFFSET -1.800000 -1.400000 0.085000
			CHANNELS 3 Zrotation Yrotation Xrotation
			JOINT RightLeg
			{
				OFFSET -2.215000 -6.000000 0.000000
				CHANNELS 3 Zrotation Yrotation Xrotation
				JOINT RightFoot
				{
					OFFSET -2.500000 -6.900000 0.000000
					CHANNELS 3 Zrotation Yrotation Xrotation
					JOINT RightToeBase
					{
						OFFSET -0.200000 -0.500000 1.950000
						CHANNELS 3 Zrotation Yrotation Xrotation
						End Site
						{
							OFFSET 0.000000 0.000000 0.000000
						}
					}
				}
			}
		}
	}
	JOINT LowerBack
	{
		OFFSET 0.000000 0.000000 0.000000
		CHANNELS 3 Zrotation Yrotation Xrotation
		JOINT Spine
		{
			OFFSET -0.087000 1.940000 -0.288900
			CHANNELS 3 Zrotation Yrotation Xrotation
			JOINT Spine1
			{
				OFFSET 0.000000 1.950000 0.060000
				CHANNELS 3 Zrotation Yrotation Xrotation
				JOINT Neck
				{
					OFFSET 0.000000 0.000000 0.000000
					CHANNELS 3 Zrotation Yrotation Xrotation
					JOINT Neck1
					{
						OFFSET 0.000000 1.600000 0.340000
						CHANNELS 3 Zrotation Yrotation Xrotation
						JOINT Head
						{
							OFFSET 0.000000 1.667000 -0.240000
							CHANNELS 3 Zrotation Yrotation Xrotation
							End Site
							{
								OFFSET 0.000000 0.000000 0.000000
							}
						}
					}
				}
				JOINT LeftShoulder
				{
					OFFSET 0.000000 0.000000 0.000000
					CHANNELS 3 Zrotation Yrotation Xrotation
					JOINT LeftArm
					{
						OFFSET 2.700000 1.550000 -0.730000
						CHANNELS 3 Zrotation Yrotation Xrotation
						JOINT LeftForeArm
						{
							OFFSET 5.450000 0.000000 0.000000
							CHANNELS 3 Zrotation Yrotation Xrotation
							JOINT LeftHand
							{
								OFFSET 3.450000 0.000000 0.000000
								CHANNELS 3 Zrotation Yrotation Xrotation
								JOINT LeftHandIndex1
								{
									OFFSET 0.750000 0.000000 0.000000
									CHANNELS 3 Zrotation Yrotation Xrotation
									End Site
									{
										OFFSET 0.000000 0.000000 0.000000
									}
								}
							}
						}
					}
				}
				JOINT RightShoulder
				{
					OFFSET 0.000000 0.000000 0.000000
					CHANNELS 3 Zrotation Yrotation Xrotation
					JOINT RightArm
					{
						OFFSET -2.700000 1.550000 -0.730000
						CHANNELS 3 Zrotation Yrotation Xrotation
						JOINT RightForeArm
						{
							OFFSET -5.450000 0.000000 0.000000
							CHANNELS 3 Zrotation Yrotation Xrotation
							JOINT RightHand
							{
								OFFSET -3.450000 0.000000 0.000000
								CHANNELS 3 Zrotation Yrotation Xrotation
								JOINT RightHandIndex1
								{
									OFFSET -0.750000 0.000000 0.000000
									CHANNELS 3 Zrotation Yrotation Xrotation
									End Site
									{
										OFFSET 0.000000 0.000000 0.000000
									}
								}
							}
						}
					}
				}
			}
		}
	}
}
MOTION
Frames: 13
Frame Time: 0.016667
0.639770 17.024580 -0.365700 -3.551284 -22.790694 10.657685 -15.324631 13.711873 2.501811 9.364237 -2.219932 -12.366909 -4.192204 4.797618 11.364420 -0.796808 4.967753 3.438823 0.578020 0.292700 0.060780 18.135247 -10.391015 2.531888 -15.713465 1.034905 -27.503662 6.385306 -5.255106 15.342919 0.255874 -4.139916 3.025897 0.620080 1.539790 0.784740 -2.994451 -2.950428 -6.245146 1.451258 -3.856194 -1.042367 4.009863 -4.868134 7.941055 0.427708 1.925245 -7.590229 3.367624 3.593821 12.316904 -3.395670 2.916340 6.582630 -7.502997 4.686808 3.109067 -26.890316 -10.578383 11.199033 146.024770 -56.562764 -125.511627 -4.883018 3.740872 -0.320060 1.284580 -0.687760 0.808800 7.699200 -7.609998 2.923844 27.291781 -2.497735 4.102702 -122.757586 68.251724 -112.222476 1.667067 -2.181236 -0.384110 0.328470 -0.150780 0.232540 
0.638050 17.024180 -0.364330 -3.671441 -22.858358 10.820321 -15.326906 13.699818 2.498850 9.406805 -2.230412 -12.311441 -4.139374 4.739475 11.139182 -0.780443 4.948029 3.439437 0.594010 0.313930 0.069830 18.134839 -10.384565 2.534123 -15.538221 1.074006 -27.367811 6.382698 -5.148997 14.917277 0.255615 -4.119080 3.022000 0.628320 1.531860 0.808190 -2.993711 -2.935382 -6.240145 1.567086 -3.898352 -1.151485 3.865491 -4.957882 7.829585 0.601094 2.087676 -7.440118 3.601394 3.547501 12.181083 -3.567000 2.977690 6.684650 -7.670418 5.058111 2.930614 -26.061338 -9.802860 10.661049 143.708559 -57.223754 -122.591755 -4.906792 3.742874 -0.348120 1.293820 -0.685270 0.810250 7.561571 -8.177162 2.936439 27.120214 -2.612520 4.735453 -117.122397 68.504912 -104.492691 1.711060 -1.500478 -0.357040 0.298320 -0.160480 0.240670 
0.633810 17.023470 -0.363560 -3.812917 -23.008772 11.141795 -15.332627 13.669283 2.498527 9.415543 -2.251082 -12.247137 -4.111200 4.641301 10.667476 -0.782116 4.924805 3.451289 0.615790 0.356030 0.066610 18.136008 -10.362880 2.540905 -15.292206 1.129050 -27.257193 6.400429 -4.982849 14.278894 0.270224 -4.106348 3.026558 0.664620 1.548390 0.821470 -2.995885 -2.918404 -6.243383 1.644521 -3.995617 -1.360743 3.780490 -5.122726 7.408624 0.844652 2.305345 -6.961005 3.849295 3.650466 11.866224 -3.773310 2.952480 6.866400 -7.759394 5.737467 2.802135 -24.824871 -8.192701 9.783833 138.490224 -58.943865 -116.679570 -4.961548 3.681194 -0.399080 1.326010 -0.704770 0.824300 7.325934 -9.098327 2.288128 26.732704 -2.986578 4.033382 -107.268170 70.570136 -87.033199 1.269544 1.008858 -0.342740 0.284880 -0.175080 0.256630 
0.629560 17.025080 -0.362450 -3.901346 -23.268834 11.437175 -15.343189 13.621467 2.479472 9.261127 -2.259940 -12.127891 -3.923751 4.505312 10.249907 -0.771361 4.871024 3.467511 0.636130 0.381560 0.076810 18.140041 -10.354565 2.533599 -14.984477 1.173272 -27.117752 6.222432 -4.772153 13.578297 0.278737 -4.067435 3.037721 0.677690 1.538080 0.840420 -2.999644 -2.840641 -6.198693 1.566697 -3.955847 -1.422080 3.518122 -5.094045 5.740221 1.550234 2.556554 -5.693996 4.273555 3.633810 11.907200 -4.087960 2.938030 7.014720 -7.523712 6.296204 3.234207 -23.310506 -6.093902 9.059827 129.793123 -61.401409 -106.824457 -5.015142 3.446455 -0.429320 1.337630 -0.706770 0.831840 6.067321 -9.460870 -1.013286 26.937557 -5.769724 -5.755850 -85.588173 83.842595 -65.891523 -0.229289 2.889167 -0.319490 0.248990 -0.195860 0.264580 
0.622790 17.023610 -0.360010 -3.954846 -23.374770 11.735071 -15.338235 13.551845 2.469824 9.139889 -2.282190 -12.002670 -3.799563 4.366978 9.711049 -0.764257 4.834941 3.492402 0.632890 0.379960 0.068060 18.151146 -10.363505 2.550074 -14.823875 1.199357 -26.833847 6.236784 -4.569915 12.541474 0.296017 -4.055796 3.046822 0.682470 1.554800 0.859800 -3.033120 -2.690005 -6.199971 1.735335 -3.818336 -1.652714 3.535338 -5.051838 5.300510 1.505046 2.881009 -5.343904 4.809084 3.408551 11.550779 -4.525120 2.823670 7.404720 -8.181557 6.273585 3.072485 -21.428955 -4.119311 7.851724 116.831652 -63.549226 -91.379782 -4.997930 2.815423 -0.467780 1.368190 -0.727050 0.839430 6.637027 -9.558212 -1.190650 25.535297 -8.697584 -8.966278 -58.678910 83.842999 -44.836742 0.584165 -1.275427 -0.310880 0.222750 -0.203240 0.275370 
0.615250 17.023090 -0.356570 -4.014457 -23.668839 12.030622 -15.348916 13.520635 2.484240 9.077334 -2.282708 -11.745576 -3.813727 4.249124 8.901046 -0.732642 4.814177 3.509562 0.624150 0.372550 0.066180 18.148132 -10.318476 2.560783 -14.681571 1.239705 -26.561704 6.303832 -4.380260 11.557630 0.314206 -4.039920 3.052372 0.676850 1.559650 0.882030 -3.025233 -2.710806 -6.214366 1.817733 -3.857404 -1.798829 3.475879 -5.166674 4.881273 1.620377 3.166697 -5.060663 5.273018 3.164284 11.213308 -5.076280 2.837190 7.851960 -8.463566 6.379564 2.145704 -20.012611 -1.883705 5.014983 100.446186 -67.170166 -71.213948 -4.622416 1.706368 -0.512900 1.394950 -0.741980 0.838590 6.654049 -9.997107 -0.713008 24.720946 -9.567770 -8.102400 -44.913764 77.693966 -31.399097 0.931714 -2.378535 -0.292510 0.182610 -0.212800 0.285260 
0.607190 17.021120 -0.354160 -4.174644 -24.057942 12.390136 -15.369253 13.502148 2.495470 9.132866 -2.289399 -11.493135 -3.791384 4.135968 8.080436 -0.714288 4.811859 3.518387 0.619620 0.369290 0.070360 18.140388 -10.252465 2.557858 -14.348507 1.332212 -26.310164 6.201354 -4.144010 10.648741 0.336318 -4.007067 3.062803 0.681010 1.563390 0.896940 -3.000637 -2.793564 -6.199180 1.950162 -3.954534 -1.992204 3.510937 -5.313916 4.223275 1.698022 3.425650 -4.539995 5.648137 2.963984 10.943679 -5.579040 2.830860 8.163010 -8.384728 5.954197 0.615316 -18.770753 1.033924 0.091077 77.150394 -71.537348 -50.151943 -4.362345 2.178086 -0.556420 1.421640 -0.762130 0.832200 6.487515 -10.042383 -0.243180 24.034449 -10.211930 -7.613377 -38.183137 70.719698 -23.458268 1.101090 -2.755801 -0.281420 0.150320 -0.219140 0.288230 
0.599640 17.019050 -0.353210 -4.251818 -24.508176 12.576328 -15.383322 13.479250 2.511448 9.142880 -2.267606 -11.088893 -3.834953 4.049967 7.282745 -0.698813 4.817666 3.525121 0.609890 0.355080 0.082280 18.133316 -10.204528 2.562580 -14.202518 1.368093 -25.970898 6.231802 -3.984074 9.764607 0.341085 -3.979508 3.075501 0.671150 1.555290 0.903350 -2.981349 -2.837587 -6.211361 1.928327 -3.937555 -2.074831 3.541712 -5.360670 4.197753 1.848223 3.623303 -4.518084 5.978303 2.683534 10.807379 -6.105390 2.871410 8.170060 -8.773429 5.551777 0.438519 -17.036171 2.934835 -1.237466 56.920066 -67.953574 -33.858891 -4.606890 3.228447 -0.564950 1.429970 -0.762210 0.822400 6.626702 -9.859861 -0.001261 23.372528 -10.909519 -7.510921 -35.705565 63.192435 -18.852496 1.220935 -2.884019 -0.279060 0.134400 -0.222970 0.281750 
0.593080 17.015660 -0.351190 -4.349730 -24.894308 12.668188 -15.394074 13.450440 2.518813 9.150253 -2.234528 -10.582124 -3.769393 3.957168 6.557044 -0.698359 4.821710 3.529038 0.613090 0.352290 0.119910 18.128131 -10.170791 2.572490 -14.122263 1.373493 -25.531149 6.392894 -3.867446 8.868772 0.336083 -3.963779 3.085478 0.670590 1.529370 0.901010 -2.967803 -2.840719 -6.225764 1.856885 -3.835196 -2.140650 3.606212 -5.333960 4.416155 2.010017 3.929890 -4.632066 6.525799 2.141397 10.748673 -6.841690 2.931600 7.909270 -9.423484 5.012681 0.451601 -15.138609 4.193075 -1.488484 44.698802 -62.216076 -23.580983 -4.718671 3.589261 -0.556140 1.429650 -0.749330 0.808160 6.950633 -9.574962 0.288129 22.831022 -11.631286 -7.328818 -35.104663 55.356548 -15.848779 1.334039 -2.934548 -0.283810 0.127810 -0.236720 0.261610 
0.587690 17.010980 -0.350190 -4.450091 -25.180884 12.780629 -15.404492 13.426365 2.528193 9.097387 -2.208521 -10.166287 -3.592360 3.838902 5.854659 -0.732749 4.829310 3.532957 0.606910 0.338030 0.139860 18.122996 -10.139388 2.581186 -13.943371 1.399624 -25.046090 6.398422 -3.717907 7.911551 0.339084 -3.951506 3.099733 0.675620 1.517220 0.891180 -2.953498 -2.849281 -6.239806 1.775396 -3.700404 -2.207961 3.756742 -5.269816 4.639879 2.115117 4.209437 -4.815431 7.062046 1.443610 10.646044 -7.627490 2.819630 7.697350 -9.995671 4.409841 0.454059 -13.511319 4.923456 -1.504314 37.104788 -56.191853 -17.085013 -4.777100 3.708204 -0.533890 1.436180 -0.750310 0.794190 7.280551 -9.203254 0.671736 22.313577 -12.337399 -6.933887 -34.721001 47.494305 -13.402522 1.433641 -2.963099 -0.310990 0.133410 -0.236650 0.235690 
0.582770 17.005920 -0.349260 -4.629820 -25.475063 13.011465 -15.407852 13.390789 2.538698 9.169777 -2.225159 -9.890414 -3.473305 3.732172 5.190181 -0.746973 4.842598 3.532901 0.618250 0.343980 0.168080 18.125868 -10.114468 2.589559 -13.622408 1.478692 -24.736458 6.166428 -3.514652 7.077329 0.347309 -3.935639 3.106105 0.691660 1.511320 0.898610 -2.962852 -2.826505 -6.249101 1.981790 -3.721908 -2.339061 3.714965 -5.358724 4.848325 2.186119 4.366278 -4.971589 7.392177 1.072890 10.406333 -8.198160 2.812070 7.700250 -10.322801 4.033679 0.504681 -12.385638 5.479506 -1.399310 32.206545 -50.009224 -12.758841 -4.833642 3.785382 -0.548000 1.455520 -0.760580 0.784400 7.436039 -8.988779 0.894235 21.861423 -12.208094 -6.219549 -34.291593 40.137211 -11.406219 1.534355 -3.013203 -0.314740 0.120010 -0.244860 0.220970 
0.576710 17.000310 -0.350170 -4.728854 -25.890290 13.219250 -15.412184 13.360275 2.544059 9.175521 -2.231373 -9.694087 -3.426598 3.671139 4.731986 -0.761941 4.872073 3.537918 0.596960 0.320570 0.165700 18.127197 -10.081023 2.611107 -13.428238 1.550641 -24.541385 6.076560 -3.353540 6.237137 0.361767 -3.935553 3.110728 0.694220 1.531660 0.899120 -2.968289 -2.817083 -6.263011 2.057726 -3.729065 -2.437530 3.643149 -5.417912 4.992967 2.266125 4.487990 -5.172436 7.659759 0.813596 10.201312 -8.676270 2.867180 7.913530 -10.464284 3.716846 0.591597 -11.492376 5.804086 -1.205186 29.077885 -44.032317 -9.841603 -4.893448 3.798066 -0.559070 1.483720 -0.780320 0.776020 7.380666 -8.792052 1.120421 21.674290 -11.830739 -5.532624 -33.512728 33.202710 -9.608204 1.630589 -3.031526 -0.337280 0.123960 -0.236860 0.213420 
0.565590 16.995120 -0.351150 -4.773957 -26.332410 13.441336 -15.418261 13.340466 2.555799 9.154523 -2.239665 -9.500248 -3.403868 3.618201 4.277453 -0.742095 4.882159 3.552752 0.568390 0.290640 0.145570 18.125511 -10.046385 2.632643 -13.186316 1.620365 -24.475729 5.977881 -3.213162 5.552982 0.375026 -3.914494 3.133893 0.676770 1.551430 0.894950 -2.963382 -2.828731 -6.283029 1.990501 -3.747521 -2.461222 3.697345 -5.468486 4.926889 2.271005 4.515829 -5.412318 7.775005 0.592827 10.063782 -8.804630 2.794810 8.276800 -10.311235 3.563072 0.746469 -11.164252 5.941663 -1.054481 27.335818 -38.727549 -7.943961 -4.925285 3.789766 -0.568120 1.495500 -0.792320 0.779030 7.177939 -8.648681 1.322700 21.561581 -11.365019 -4.891875 -32.308819 26.571252 -7.889356 1.744425 -3.022768 -0.348160 0.126490 -0.233510 0.221490 
